<svg xmlns="http://www.w3.org/2000/svg" width="1200" height="630" viewBox="0 0 1200 630" role="img" aria-labelledby="title desc">
  <title id="title">BayonHub</title>
  <desc id="desc">BayonHub marketplace preview</desc>
  <defs>
    <linearGradient id="bg" x1="0" x2="1" y1="0" y2="1">
      <stop offset="0" stop-color="#ffffff"/>
      <stop offset="1" stop-color="#f4f4f5"/>
    </linearGradient>
    <radialGradient id="accent" cx="70%" cy="30%" r="55%">
      <stop offset="0" stop-color="#E53935" stop-opacity="0.34"/>
      <stop offset="1" stop-color="#E53935" stop-opacity="0"/>
    </radialGradient>
    <filter id="shadow" x="-20%" y="-20%" width="140%" height="140%">
      <feDropShadow dx="0" dy="24" stdDeviation="28" flood-color="#0A0A0A" flood-opacity="0.16"/>
    </filter>
  </defs>
  <rect width="1200" height="630" fill="url(#bg)"/>
  <rect width="1200" height="630" fill="url(#accent)"/>
  <rect x="90" y="92" width="1020" height="446" rx="36" fill="#ffffff" filter="url(#shadow)"/>
  <rect x="130" y="132" width="112" height="112" rx="28" fill="#E53935"/>
  <text x="186" y="202" text-anchor="middle" font-family="Plus Jakarta Sans, Arial, sans-serif" font-size="36" font-weight="800" fill="#ffffff">BH</text>
  <text x="130" y="326" font-family="Plus Jakarta Sans, Arial, sans-serif" font-size="92" font-weight="800" fill="#0A0A0A">BayonHub</text>
  <text x="136" y="396" font-family="Plus Jakarta Sans, Arial, sans-serif" font-size="34" font-weight="700" fill="#525252">Cambodia marketplace for cars, phones, homes, and jobs</text>
  <g transform="translate(830 156)">
    <circle cx="120" cy="120" r="118" fill="#E53935" opacity="0.12"/>
    <path d="M120 10 224 70v120l-104 60L16 190V70L120 10Z" fill="#E53935" opacity="0.9"/>
    <path d="M120 42 196 86v88l-76 44-76-44V86l76-44Z" fill="#ffffff" opacity="0.18"/>
  </g>
</svg>
